<?xml version="1.0" encoding="UTF-8" standalone="no"?>
<svg
   xmlns:dc="http://purl.org/dc/elements/1.1/"
   xmlns:cc="http://creativecommons.org/ns#"
   xmlns:rdf="http://www.w3.org/1999/02/22-rdf-syntax-ns#"
   xmlns:svg="http://www.w3.org/2000/svg"
   xmlns="http://www.w3.org/2000/svg"
   xmlns:sodipodi="http://sodipodi.sourceforge.net/DTD/sodipodi-0.dtd"
   xmlns:inkscape="http://www.inkscape.org/namespaces/inkscape"
   height="314.50mm"
   viewBox="0.0 0.0 194.70 314.50"
   width="194.70mm"
   version="1.1"
   id="svg91"
   sodipodi:docname="UniversalBoxSmaller.svg"
   inkscape:version="1.0.2 (1.0.2+r75+1)">
  <defs
     id="defs95" />
  <sodipodi:namedview
     pagecolor="#ffffff"
     bordercolor="#666666"
     borderopacity="1"
     objecttolerance="10"
     gridtolerance="10"
     guidetolerance="10"
     inkscape:pageopacity="0"
     inkscape:pageshadow="2"
     inkscape:window-width="1920"
     inkscape:window-height="1150"
     id="namedview93"
     showgrid="false"
     inkscape:zoom="0.70710678"
     inkscape:cx="286.94104"
     inkscape:cy="672.42181"
     inkscape:window-x="0"
     inkscape:window-y="0"
     inkscape:window-maximized="1"
     inkscape:current-layer="svg91"
     inkscape:document-rotation="0" />
  <!--
UniversalBox - Box with various options for different styles and lids

Created with Boxes.py (https://festi.info/boxes.py)
Creation date: 2022-01-12 16:56:31
Command line (remove spaces between dashes): boxes UniversalBox - -FingerJoint_angle=90.0 - -FingerJoint_style=rectangular - -FingerJoint_surroundingspaces=2.0 - -FingerJoint_edge_width=1.0 - -FingerJoint_finger=2.0 - -FingerJoint_play=0.0 - -FingerJoint_space=2.0 - -FingerJoint_width=1.0 - -Stackable_angle=60 - -Stackable_height=2.0 - -Stackable_holedistance=1.0 - -Stackable_width=4.0 - -Hinge_grip_percentage=0 - -Hinge_outset=0 - -Hinge_outset=1 - -Hinge_pinwidth=0.5 - -Hinge_style=outset - -Hinge_axle=2 - -Hinge_grip_length=0 - -Hinge_hingestrength=1 - -CabinetHinge_bore=3.2 - -CabinetHinge_eyes_per_hinge=5 - -CabinetHinge_hinges=2 - -CabinetHinge_style=inside - -CabinetHinge_eye=1.5 - -CabinetHinge_play=0.05 - -CabinetHinge_spacing=2.0 - -Lid_angle=90.0 - -Lid_hole_width=0 - -Lid_second_pin=0 - -Lid_second_pin=1 - -Lid_spring=both - -Lid_style=rectangular - -Lid_surroundingspaces=2.0 - -Lid_edge_width=1.0 - -Lid_finger=3.0 - -Lid_play=0.05 - -Lid_space=2.0 - -Lid_width=1.0 - -Click_angle=5.0 - -Click_bottom_radius=0.1 - -Click_depth=3.0 - -RoundedTriangleEdge_height=150.0 - -RoundedTriangleEdge_r_hole=2.0 - -RoundedTriangleEdge_radius=30.0 - -RoundedTriangleEdge_outset=1 - -Flex_stretch=1.05 - -Flex_connection=1.0 - -Flex_distance=0.5 - -Flex_width=5.0 - -top_edge=i - -bottom_edge=h - -x=88 - -y=73 - -h=45 - -outside=0 '- -vertical_edges=finger joints' '- -lid=default (none)' - -thickness=3.0 - -format=svg - -tabs=0.0 - -debug=0 - -labels=0 - -labels=1 - -reference=100 - -burn=0.05
Url: http://www.festi.info/UniversalBox?FingerJoint_angle=90.0&FingerJoint_style=rectangular&FingerJoint_surroundingspaces=2.0&FingerJoint_edge_width=1.0&FingerJoint_finger=2.0&FingerJoint_play=0.0&FingerJoint_space=2.0&FingerJoint_width=1.0&Stackable_angle=60&Stackable_height=2.0&Stackable_holedistance=1.0&Stackable_width=4.0&Hinge_grip_percentage=0&Hinge_outset=0&Hinge_outset=1&Hinge_pinwidth=0.5&Hinge_style=outset&Hinge_axle=2&Hinge_grip_length=0&Hinge_hingestrength=1&CabinetHinge_bore=3.2&CabinetHinge_eyes_per_hinge=5&CabinetHinge_hinges=2&CabinetHinge_style=inside&CabinetHinge_eye=1.5&CabinetHinge_play=0.05&CabinetHinge_spacing=2.0&Lid_angle=90.0&Lid_hole_width=0&Lid_second_pin=0&Lid_second_pin=1&Lid_spring=both&Lid_style=rectangular&Lid_surroundingspaces=2.0&Lid_edge_width=1.0&Lid_finger=3.0&Lid_play=0.05&Lid_space=2.0&Lid_width=1.0&Click_angle=5.0&Click_bottom_radius=0.1&Click_depth=3.0&RoundedTriangleEdge_height=150.0&RoundedTriangleEdge_r_hole=2.0&RoundedTriangleEdge_radius=30.0&RoundedTriangleEdge_outset=1&Flex_stretch=1.05&Flex_connection=1.0&Flex_distance=0.5&Flex_width=5.0&top_edge=i&bottom_edge=h&x=88&y=73&h=45&outside=0&vertical_edges=finger+joints&lid=default+%28none%29&thickness=3.0&format=svg&tabs=0.0&debug=0&labels=0&labels=1&reference=100&burn=0.05&render=1
SettingsUrl: http://www.festi.info/UniversalBox?FingerJoint_angle=90.0&FingerJoint_style=rectangular&FingerJoint_surroundingspaces=2.0&FingerJoint_edge_width=1.0&FingerJoint_finger=2.0&FingerJoint_play=0.0&FingerJoint_space=2.0&FingerJoint_width=1.0&Stackable_angle=60&Stackable_height=2.0&Stackable_holedistance=1.0&Stackable_width=4.0&Hinge_grip_percentage=0&Hinge_outset=0&Hinge_outset=1&Hinge_pinwidth=0.5&Hinge_style=outset&Hinge_axle=2&Hinge_grip_length=0&Hinge_hingestrength=1&CabinetHinge_bore=3.2&CabinetHinge_eyes_per_hinge=5&CabinetHinge_hinges=2&CabinetHinge_style=inside&CabinetHinge_eye=1.5&CabinetHinge_play=0.05&CabinetHinge_spacing=2.0&Lid_angle=90.0&Lid_hole_width=0&Lid_second_pin=0&Lid_second_pin=1&Lid_spring=both&Lid_style=rectangular&Lid_surroundingspaces=2.0&Lid_edge_width=1.0&Lid_finger=3.0&Lid_play=0.05&Lid_space=2.0&Lid_width=1.0&Click_angle=5.0&Click_bottom_radius=0.1&Click_depth=3.0&RoundedTriangleEdge_height=150.0&RoundedTriangleEdge_r_hole=2.0&RoundedTriangleEdge_radius=30.0&RoundedTriangleEdge_outset=1&Flex_stretch=1.05&Flex_connection=1.0&Flex_distance=0.5&Flex_width=5.0&top_edge=i&bottom_edge=h&x=88&y=73&h=45&outside=0&vertical_edges=finger+joints&lid=default+%28none%29&thickness=3.0&format=svg&tabs=0.0&debug=0&labels=0&labels=1&reference=100&burn=0.05
-->
  <title
     id="title2">UniversalBox</title>
  <metadata
     id="metadata4">
    <rdf:RDF>
      <cc:Work>
        <dc:title>UniversalBox</dc:title>
        <dc:date>2022-01-12 16:56:31</dc:date>
        <dc:source>http://www.festi.info/UniversalBox?FingerJoint_angle=90.0&amp;FingerJoint_style=rectangular&amp;FingerJoint_surroundingspaces=2.0&amp;FingerJoint_edge_width=1.0&amp;FingerJoint_finger=2.0&amp;FingerJoint_play=0.0&amp;FingerJoint_space=2.0&amp;FingerJoint_width=1.0&amp;Stackable_angle=60&amp;Stackable_height=2.0&amp;Stackable_holedistance=1.0&amp;Stackable_width=4.0&amp;Hinge_grip_percentage=0&amp;Hinge_outset=0&amp;Hinge_outset=1&amp;Hinge_pinwidth=0.5&amp;Hinge_style=outset&amp;Hinge_axle=2&amp;Hinge_grip_length=0&amp;Hinge_hingestrength=1&amp;CabinetHinge_bore=3.2&amp;CabinetHinge_eyes_per_hinge=5&amp;CabinetHinge_hinges=2&amp;CabinetHinge_style=inside&amp;CabinetHinge_eye=1.5&amp;CabinetHinge_play=0.05&amp;CabinetHinge_spacing=2.0&amp;Lid_angle=90.0&amp;Lid_hole_width=0&amp;Lid_second_pin=0&amp;Lid_second_pin=1&amp;Lid_spring=both&amp;Lid_style=rectangular&amp;Lid_surroundingspaces=2.0&amp;Lid_edge_width=1.0&amp;Lid_finger=3.0&amp;Lid_play=0.05&amp;Lid_space=2.0&amp;Lid_width=1.0&amp;Click_angle=5.0&amp;Click_bottom_radius=0.1&amp;Click_depth=3.0&amp;RoundedTriangleEdge_height=150.0&amp;RoundedTriangleEdge_r_hole=2.0&amp;RoundedTriangleEdge_radius=30.0&amp;RoundedTriangleEdge_outset=1&amp;Flex_stretch=1.05&amp;Flex_connection=1.0&amp;Flex_distance=0.5&amp;Flex_width=5.0&amp;top_edge=i&amp;bottom_edge=h&amp;x=88&amp;y=73&amp;h=45&amp;outside=0&amp;vertical_edges=finger+joints&amp;lid=default+%28none%29&amp;thickness=3.0&amp;format=svg&amp;tabs=0.0&amp;debug=0&amp;labels=0&amp;labels=1&amp;reference=100&amp;burn=0.05&amp;render=1</dc:source>
        <dc:description>Box with various options for different styles and lids

Created with Boxes.py (https://festi.info/boxes.py)
Command line: boxes UniversalBox --FingerJoint_angle=90.0 --FingerJoint_style=rectangular --FingerJoint_surroundingspaces=2.0 --FingerJoint_edge_width=1.0 --FingerJoint_finger=2.0 --FingerJoint_play=0.0 --FingerJoint_space=2.0 --FingerJoint_width=1.0 --Stackable_angle=60 --Stackable_height=2.0 --Stackable_holedistance=1.0 --Stackable_width=4.0 --Hinge_grip_percentage=0 --Hinge_outset=0 --Hinge_outset=1 --Hinge_pinwidth=0.5 --Hinge_style=outset --Hinge_axle=2 --Hinge_grip_length=0 --Hinge_hingestrength=1 --CabinetHinge_bore=3.2 --CabinetHinge_eyes_per_hinge=5 --CabinetHinge_hinges=2 --CabinetHinge_style=inside --CabinetHinge_eye=1.5 --CabinetHinge_play=0.05 --CabinetHinge_spacing=2.0 --Lid_angle=90.0 --Lid_hole_width=0 --Lid_second_pin=0 --Lid_second_pin=1 --Lid_spring=both --Lid_style=rectangular --Lid_surroundingspaces=2.0 --Lid_edge_width=1.0 --Lid_finger=3.0 --Lid_play=0.05 --Lid_space=2.0 --Lid_width=1.0 --Click_angle=5.0 --Click_bottom_radius=0.1 --Click_depth=3.0 --RoundedTriangleEdge_height=150.0 --RoundedTriangleEdge_r_hole=2.0 --RoundedTriangleEdge_radius=30.0 --RoundedTriangleEdge_outset=1 --Flex_stretch=1.05 --Flex_connection=1.0 --Flex_distance=0.5 --Flex_width=5.0 --top_edge=i --bottom_edge=h --x=88 --y=73 --h=45 --outside=0 '--vertical_edges=finger joints' '--lid=default (none)' --thickness=3.0 --format=svg --tabs=0.0 --debug=0 --labels=0 --labels=1 --reference=100 --burn=0.05
Url: http://www.festi.info/UniversalBox?FingerJoint_angle=90.0&amp;FingerJoint_style=rectangular&amp;FingerJoint_surroundingspaces=2.0&amp;FingerJoint_edge_width=1.0&amp;FingerJoint_finger=2.0&amp;FingerJoint_play=0.0&amp;FingerJoint_space=2.0&amp;FingerJoint_width=1.0&amp;Stackable_angle=60&amp;Stackable_height=2.0&amp;Stackable_holedistance=1.0&amp;Stackable_width=4.0&amp;Hinge_grip_percentage=0&amp;Hinge_outset=0&amp;Hinge_outset=1&amp;Hinge_pinwidth=0.5&amp;Hinge_style=outset&amp;Hinge_axle=2&amp;Hinge_grip_length=0&amp;Hinge_hingestrength=1&amp;CabinetHinge_bore=3.2&amp;CabinetHinge_eyes_per_hinge=5&amp;CabinetHinge_hinges=2&amp;CabinetHinge_style=inside&amp;CabinetHinge_eye=1.5&amp;CabinetHinge_play=0.05&amp;CabinetHinge_spacing=2.0&amp;Lid_angle=90.0&amp;Lid_hole_width=0&amp;Lid_second_pin=0&amp;Lid_second_pin=1&amp;Lid_spring=both&amp;Lid_style=rectangular&amp;Lid_surroundingspaces=2.0&amp;Lid_edge_width=1.0&amp;Lid_finger=3.0&amp;Lid_play=0.05&amp;Lid_space=2.0&amp;Lid_width=1.0&amp;Click_angle=5.0&amp;Click_bottom_radius=0.1&amp;Click_depth=3.0&amp;RoundedTriangleEdge_height=150.0&amp;RoundedTriangleEdge_r_hole=2.0&amp;RoundedTriangleEdge_radius=30.0&amp;RoundedTriangleEdge_outset=1&amp;Flex_stretch=1.05&amp;Flex_connection=1.0&amp;Flex_distance=0.5&amp;Flex_width=5.0&amp;top_edge=i&amp;bottom_edge=h&amp;x=88&amp;y=73&amp;h=45&amp;outside=0&amp;vertical_edges=finger+joints&amp;lid=default+%28none%29&amp;thickness=3.0&amp;format=svg&amp;tabs=0.0&amp;debug=0&amp;labels=0&amp;labels=1&amp;reference=100&amp;burn=0.05&amp;render=1
SettingsUrl: http://www.festi.info/UniversalBox?FingerJoint_angle=90.0&amp;FingerJoint_style=rectangular&amp;FingerJoint_surroundingspaces=2.0&amp;FingerJoint_edge_width=1.0&amp;FingerJoint_finger=2.0&amp;FingerJoint_play=0.0&amp;FingerJoint_space=2.0&amp;FingerJoint_width=1.0&amp;Stackable_angle=60&amp;Stackable_height=2.0&amp;Stackable_holedistance=1.0&amp;Stackable_width=4.0&amp;Hinge_grip_percentage=0&amp;Hinge_outset=0&amp;Hinge_outset=1&amp;Hinge_pinwidth=0.5&amp;Hinge_style=outset&amp;Hinge_axle=2&amp;Hinge_grip_length=0&amp;Hinge_hingestrength=1&amp;CabinetHinge_bore=3.2&amp;CabinetHinge_eyes_per_hinge=5&amp;CabinetHinge_hinges=2&amp;CabinetHinge_style=inside&amp;CabinetHinge_eye=1.5&amp;CabinetHinge_play=0.05&amp;CabinetHinge_spacing=2.0&amp;Lid_angle=90.0&amp;Lid_hole_width=0&amp;Lid_second_pin=0&amp;Lid_second_pin=1&amp;Lid_spring=both&amp;Lid_style=rectangular&amp;Lid_surroundingspaces=2.0&amp;Lid_edge_width=1.0&amp;Lid_finger=3.0&amp;Lid_play=0.05&amp;Lid_space=2.0&amp;Lid_width=1.0&amp;Click_angle=5.0&amp;Click_bottom_radius=0.1&amp;Click_depth=3.0&amp;RoundedTriangleEdge_height=150.0&amp;RoundedTriangleEdge_r_hole=2.0&amp;RoundedTriangleEdge_radius=30.0&amp;RoundedTriangleEdge_outset=1&amp;Flex_stretch=1.05&amp;Flex_connection=1.0&amp;Flex_distance=0.5&amp;Flex_width=5.0&amp;top_edge=i&amp;bottom_edge=h&amp;x=88&amp;y=73&amp;h=45&amp;outside=0&amp;vertical_edges=finger+joints&amp;lid=default+%28none%29&amp;thickness=3.0&amp;format=svg&amp;tabs=0.0&amp;debug=0&amp;labels=0&amp;labels=1&amp;reference=100&amp;burn=0.05
</dc:description>
        <dc:format>image/svg+xml</dc:format>
        <dc:type
           rdf:resource="http://purl.org/dc/dcmitype/StillImage" />
      </cc:Work>
    </rdf:RDF>
  </metadata>
  <g
     id="p-0"
     style="fill:none;stroke-linecap:round;stroke-linejoin:round;stroke:#000000;stroke-opacity:1">
    <path
       d="M 10.050 304.500 H 110.050 V 294.500 H 10.050 V 304.500 Z"
       stroke="rgb(0,0,0)"
       stroke-width="0.10"
       id="path6"
       style="stroke:#000000;stroke-opacity:1;fill:none" />
    <text
       alignment-baseline="hanging"
       font-size="4px"
       style="font-family:sans-serif;font-weight:normal;font-style:normal;fill:none;stroke:#000000;stroke-opacity:1"
       text-anchor="middle"
       transform="matrix( 1.000 0.000 0.000 1.000 15.050 297.500 )"
       id="text10" />
  </g>
  <g
     id="p-1"
     style="fill:none;stroke-linecap:round;stroke-linejoin:round;stroke:#000000;stroke-opacity:1">
    <path
       d="M 27.050 289.800 H 24.100 C 24.050 289.800 24.100 289.850 24.100 289.800 V 286.900 C 24.100 286.850 24.050 286.900 24.100 286.900 H 30.000 C 30.050 286.900 30.000 286.850 30.000 286.900 V 289.800 C 30.000 289.850 30.050 289.800 30.000 289.800 H 27.050 Z"
       stroke="rgb(0,0,255)"
       stroke-width="0.10"
       id="path13"
       style="stroke:#ff0000;stroke-opacity:1;fill:none" />
    <path
       d="M 39.050 289.800 H 36.100 C 36.050 289.800 36.100 289.850 36.100 289.800 V 286.900 C 36.100 286.850 36.050 286.900 36.100 286.900 H 42.000 C 42.050 286.900 42.000 286.850 42.000 286.900 V 289.800 C 42.000 289.850 42.050 289.800 42.000 289.800 H 39.050 Z"
       stroke="rgb(0,0,255)"
       stroke-width="0.10"
       id="path15"
       style="stroke:#ff0000;stroke-opacity:1;fill:none" />
    <path
       d="M 51.050 289.800 H 48.100 C 48.050 289.800 48.100 289.850 48.100 289.800 V 286.900 C 48.100 286.850 48.050 286.900 48.100 286.900 H 54.000 C 54.050 286.900 54.000 286.850 54.000 286.900 V 289.800 C 54.000 289.850 54.050 289.800 54.000 289.800 H 51.050 Z"
       stroke="rgb(0,0,255)"
       stroke-width="0.10"
       id="path17"
       style="stroke:#ff0000;stroke-opacity:1;fill:none" />
    <path
       d="M 63.050 289.800 H 60.100 C 60.050 289.800 60.100 289.850 60.100 289.800 V 286.900 C 60.100 286.850 60.050 286.900 60.100 286.900 H 66.000 C 66.050 286.900 66.000 286.850 66.000 286.900 V 289.800 C 66.000 289.850 66.050 289.800 66.000 289.800 H 63.050 Z"
       stroke="rgb(0,0,255)"
       stroke-width="0.10"
       id="path19"
       style="stroke:#ff0000;stroke-opacity:1;fill:none" />
    <path
       d="M 75.050 289.800 H 72.100 C 72.050 289.800 72.100 289.850 72.100 289.800 V 286.900 C 72.100 286.850 72.050 286.900 72.100 286.900 H 78.000 C 78.050 286.900 78.000 286.850 78.000 286.900 V 289.800 C 78.000 289.850 78.050 289.800 78.000 289.800 H 75.050 Z"
       stroke="rgb(0,0,255)"
       stroke-width="0.10"
       id="path21"
       style="stroke:#ff0000;stroke-opacity:1;fill:none" />
    <path
       d="M 87.050 289.800 H 84.100 C 84.050 289.800 84.100 289.850 84.100 289.800 V 286.900 C 84.100 286.850 84.050 286.900 84.100 286.900 H 90.000 C 90.050 286.900 90.000 286.850 90.000 286.900 V 289.800 C 90.000 289.850 90.050 289.800 90.000 289.800 H 87.050 Z"
       stroke="rgb(0,0,255)"
       stroke-width="0.10"
       id="path23"
       style="stroke:#ff0000;stroke-opacity:1;fill:none" />
    <text
       alignment-baseline="hanging"
       font-size="4px"
       style="font-family:sans-serif;font-weight:normal;font-style:normal;fill:none;stroke:#000000;stroke-opacity:1"
       text-anchor="middle"
       transform="matrix( 1.000 0.000 0.000 1.000 57.050 260.900 )"
       id="text25" />
    <path
       d="M 13.050 292.900 H 101.050 H 104.050 C 104.078 292.900 104.100 292.878 104.100 292.850 V 282.350 C 104.100 282.322 104.078 282.300 104.050 282.300 H 101.100 C 101.050 282.300 101.100 282.350 101.100 282.300 V 276.400 C 101.100 276.350 101.050 276.400 101.100 276.400 H 104.050 C 104.078 276.400 104.100 276.378 104.100 276.350 V 270.350 C 104.100 270.322 104.078 270.300 104.050 270.300 H 101.100 C 101.050 270.300 101.100 270.350 101.100 270.300 V 264.400 C 101.100 264.350 101.050 264.400 101.100 264.400 H 104.050 C 104.078 264.400 104.100 264.378 104.100 264.350 V 258.350 C 104.100 258.322 104.078 258.300 104.050 258.300 H 101.100 C 101.050 258.300 101.100 258.350 101.100 258.300 V 252.400 C 101.100 252.350 101.050 252.400 101.100 252.400 H 104.050 C 104.078 252.400 104.100 252.378 104.100 252.350 V 241.850 C 104.100 241.822 104.078 241.800 104.050 241.800 H 101.050 C 101.032 241.800 101.016 241.810 101.007 241.825 C 100.724 242.315 100.306 242.713 99.804 242.972 C 99.301 243.231 98.734 243.340 98.172 243.287 C 97.609 243.233 97.073 243.018 96.628 242.669 C 96.184 242.319 95.849 241.849 95.664 241.315 C 95.479 240.780 95.452 240.204 95.585 239.655 C 95.718 239.105 96.007 238.605 96.416 238.215 C 96.825 237.825 97.338 237.560 97.894 237.453 C 98.449 237.346 99.023 237.401 99.548 237.611 C 100.073 237.822 100.527 238.178 100.855 238.639 C 101.183 239.099 101.372 239.645 101.399 240.210 C 101.425 240.775 101.289 241.335 101.007 241.825 C 101.002 241.833 101.000 241.841 101.000 241.850 C 101.000 241.859 101.002 241.867 101.007 241.875 C 101.011 241.883 101.017 241.889 101.025 241.893 C 101.033 241.898 101.041 241.900 101.050 241.900 H 104.050 C 104.078 241.900 104.100 241.878 104.100 241.850 V 240.350 C 104.100 239.359 103.839 238.385 103.343 237.526 C 102.848 236.667 102.135 235.954 101.276 235.459 C 100.417 234.963 99.443 234.702 98.452 234.702 C 97.460 234.702 96.487 234.963 95.628 235.459 C 94.769 235.954 94.056 236.667 93.561 237.526 C 93.065 238.385 92.804 239.359 92.804 240.350 C 92.804 240.605 92.737 240.855 92.610 241.075 C 92.482 241.295 92.299 241.478 92.079 241.606 C 91.858 241.733 91.608 241.800 91.354 241.800 H 13.050 H 10.050 C 10.022 241.800 10.000 241.822 10.000 241.850 V 252.350 C 10.000 252.378 10.022 252.400 10.050 252.400 H 13.000 C 13.050 252.400 13.000 252.350 13.000 252.400 V 258.300 C 13.000 258.350 13.050 258.300 13.000 258.300 H 10.050 C 10.022 258.300 10.000 258.322 10.000 258.350 V 264.350 C 10.000 264.378 10.022 264.400 10.050 264.400 H 13.000 C 13.050 264.400 13.000 264.350 13.000 264.400 V 270.300 C 13.000 270.350 13.050 270.300 13.000 270.300 H 10.050 C 10.022 270.300 10.000 270.322 10.000 270.350 V 276.350 C 10.000 276.378 10.022 276.400 10.050 276.400 H 13.000 C 13.050 276.400 13.000 276.350 13.000 276.400 V 282.300 C 13.000 282.350 13.050 282.300 13.000 282.300 H 10.050 C 10.022 282.300 10.000 282.322 10.000 282.350 V 292.850 C 10.000 292.878 10.022 292.900 10.050 292.900 H 13.050"
       stroke="rgb(0,0,0)"
       stroke-width="0.10"
       id="path27"
       style="stroke:#000000;stroke-opacity:1;fill:none" />
    <path
       d="M 98.452 238.850 H 99.701 C 99.751 238.850 99.701 238.800 99.701 238.850 V 241.750 C 99.701 241.800 99.751 241.750 99.701 241.750 H 97.203 C 97.153 241.750 97.203 241.800 97.203 241.750 V 238.850 C 97.203 238.800 97.153 238.850 97.203 238.850 H 98.452 Z"
       stroke="rgb(0,0,255)"
       stroke-width="0.10"
       id="path29"
       style="stroke:#ff0000;stroke-opacity:1;fill:none" />
  </g>
  <g
     id="p-2"
     style="fill:none;stroke-linecap:round;stroke-linejoin:round;stroke:#000000;stroke-opacity:1">
    <path
       d="M 27.050 228.200 H 24.100 C 24.050 228.200 24.100 228.250 24.100 228.200 V 225.300 C 24.100 225.250 24.050 225.300 24.100 225.300 H 30.000 C 30.050 225.300 30.000 225.250 30.000 225.300 V 228.200 C 30.000 228.250 30.050 228.200 30.000 228.200 H 27.050 Z"
       stroke="rgb(0,0,255)"
       stroke-width="0.10"
       id="path32"
       style="stroke:#ff0000;stroke-opacity:1;fill:none" />
    <path
       d="M 39.050 228.200 H 36.100 C 36.050 228.200 36.100 228.250 36.100 228.200 V 225.300 C 36.100 225.250 36.050 225.300 36.100 225.300 H 42.000 C 42.050 225.300 42.000 225.250 42.000 225.300 V 228.200 C 42.000 228.250 42.050 228.200 42.000 228.200 H 39.050 Z"
       stroke="rgb(0,0,255)"
       stroke-width="0.10"
       id="path34"
       style="stroke:#ff0000;stroke-opacity:1;fill:none" />
    <path
       d="M 51.050 228.200 H 48.100 C 48.050 228.200 48.100 228.250 48.100 228.200 V 225.300 C 48.100 225.250 48.050 225.300 48.100 225.300 H 54.000 C 54.050 225.300 54.000 225.250 54.000 225.300 V 228.200 C 54.000 228.250 54.050 228.200 54.000 228.200 H 51.050 Z"
       stroke="rgb(0,0,255)"
       stroke-width="0.10"
       id="path36"
       style="stroke:#ff0000;stroke-opacity:1;fill:none" />
    <path
       d="M 63.050 228.200 H 60.100 C 60.050 228.200 60.100 228.250 60.100 228.200 V 225.300 C 60.100 225.250 60.050 225.300 60.100 225.300 H 66.000 C 66.050 225.300 66.000 225.250 66.000 225.300 V 228.200 C 66.000 228.250 66.050 228.200 66.000 228.200 H 63.050 Z"
       stroke="rgb(0,0,255)"
       stroke-width="0.10"
       id="path38"
       style="stroke:#ff0000;stroke-opacity:1;fill:none" />
    <path
       d="M 75.050 228.200 H 72.100 C 72.050 228.200 72.100 228.250 72.100 228.200 V 225.300 C 72.100 225.250 72.050 225.300 72.100 225.300 H 78.000 C 78.050 225.300 78.000 225.250 78.000 225.300 V 228.200 C 78.000 228.250 78.050 228.200 78.000 228.200 H 75.050 Z"
       stroke="rgb(0,0,255)"
       stroke-width="0.10"
       id="path40"
       style="stroke:#ff0000;stroke-opacity:1;fill:none" />
    <path
       d="M 87.050 228.200 H 84.100 C 84.050 228.200 84.100 228.250 84.100 228.200 V 225.300 C 84.100 225.250 84.050 225.300 84.100 225.300 H 90.000 C 90.050 225.300 90.000 225.250 90.000 225.300 V 228.200 C 90.000 228.250 90.050 228.200 90.000 228.200 H 87.050 Z"
       stroke="rgb(0,0,255)"
       stroke-width="0.10"
       id="path42"
       style="stroke:#ff0000;stroke-opacity:1;fill:none" />
    <text
       alignment-baseline="hanging"
       font-size="4px"
       style="font-family:sans-serif;font-weight:normal;font-style:normal;fill:none;stroke:#000000;stroke-opacity:1"
       text-anchor="middle"
       transform="matrix( 1.000 0.000 0.000 1.000 57.050 199.300 )"
       id="text44" />
    <path
       d="M 13.050 231.300 H 101.050 H 104.050 C 104.078 231.300 104.100 231.278 104.100 231.250 V 220.750 C 104.100 220.722 104.078 220.700 104.050 220.700 H 101.100 C 101.050 220.700 101.100 220.750 101.100 220.700 V 214.800 C 101.100 214.750 101.050 214.800 101.100 214.800 H 104.050 C 104.078 214.800 104.100 214.778 104.100 214.750 V 208.750 C 104.100 208.722 104.078 208.700 104.050 208.700 H 101.100 C 101.050 208.700 101.100 208.750 101.100 208.700 V 202.800 C 101.100 202.750 101.050 202.800 101.100 202.800 H 104.050 C 104.078 202.800 104.100 202.778 104.100 202.750 V 196.750 C 104.100 196.722 104.078 196.700 104.050 196.700 H 101.100 C 101.050 196.700 101.100 196.750 101.100 196.700 V 190.800 C 101.100 190.750 101.050 190.800 101.100 190.800 H 104.050 C 104.078 190.800 104.100 190.778 104.100 190.750 V 180.250 C 104.100 180.222 104.078 180.200 104.050 180.200 H 101.050 H 22.746 C 22.492 180.200 22.242 180.133 22.021 180.006 C 21.801 179.878 21.618 179.695 21.490 179.475 C 21.363 179.255 21.296 179.005 21.296 178.750 C 21.296 177.759 21.035 176.785 20.539 175.926 C 20.044 175.067 19.331 174.354 18.472 173.859 C 17.613 173.363 16.640 173.102 15.648 173.102 C 14.657 173.102 13.683 173.363 12.824 173.859 C 11.965 174.354 11.252 175.067 10.757 175.926 C 10.261 176.785 10.000 177.759 10.000 178.750 V 180.250 C 10.000 180.278 10.022 180.300 10.050 180.300 H 13.050 C 13.059 180.300 13.067 180.298 13.075 180.293 C 13.083 180.289 13.089 180.283 13.093 180.275 C 13.098 180.267 13.100 180.259 13.100 180.250 C 13.100 180.241 13.098 180.233 13.093 180.225 C 12.811 179.735 12.675 179.175 12.701 178.610 C 12.728 178.045 12.917 177.499 13.245 177.039 C 13.573 176.578 14.027 176.222 14.552 176.011 C 15.077 175.801 15.651 175.746 16.206 175.853 C 16.762 175.960 17.275 176.225 17.684 176.615 C 18.093 177.005 18.382 177.505 18.515 178.055 C 18.648 178.604 18.621 179.180 18.436 179.715 C 18.251 180.249 17.916 180.719 17.472 181.069 C 17.027 181.418 16.491 181.633 15.928 181.687 C 15.366 181.740 14.799 181.631 14.296 181.372 C 13.794 181.113 13.376 180.715 13.093 180.225 C 13.084 180.210 13.068 180.200 13.050 180.200 H 10.050 C 10.022 180.200 10.000 180.222 10.000 180.250 V 190.750 C 10.000 190.778 10.022 190.800 10.050 190.800 H 13.000 C 13.050 190.800 13.000 190.750 13.000 190.800 V 196.700 C 13.000 196.750 13.050 196.700 13.000 196.700 H 10.050 C 10.022 196.700 10.000 196.722 10.000 196.750 V 202.750 C 10.000 202.778 10.022 202.800 10.050 202.800 H 13.000 C 13.050 202.800 13.000 202.750 13.000 202.800 V 208.700 C 13.000 208.750 13.050 208.700 13.000 208.700 H 10.050 C 10.022 208.700 10.000 208.722 10.000 208.750 V 214.750 C 10.000 214.778 10.022 214.800 10.050 214.800 H 13.000 C 13.050 214.800 13.000 214.750 13.000 214.800 V 220.700 C 13.000 220.750 13.050 220.700 13.000 220.700 H 10.050 C 10.022 220.700 10.000 220.722 10.000 220.750 V 231.250 C 10.000 231.278 10.022 231.300 10.050 231.300 H 13.050"
       stroke="rgb(0,0,0)"
       stroke-width="0.10"
       id="path46"
       style="stroke:#000000;stroke-opacity:1;fill:none" />
    <path
       d="M 15.648 177.250 H 16.897 C 16.947 177.250 16.897 177.200 16.897 177.250 V 180.150 C 16.897 180.200 16.947 180.150 16.897 180.150 H 14.399 C 14.349 180.150 14.399 180.200 14.399 180.150 V 177.250 C 14.399 177.200 14.349 177.250 14.399 177.250 H 15.648 Z"
       stroke="rgb(0,0,255)"
       stroke-width="0.10"
       id="path48"
       style="stroke:#ff0000;stroke-opacity:1;fill:none" />
  </g>
  <g
     id="p-3"
     style="fill:none;stroke-linecap:round;stroke-linejoin:round;stroke:#000000;stroke-opacity:1">
    <text
       alignment-baseline="hanging"
       font-size="4px"
       style="font-family:sans-serif;font-weight:normal;font-style:normal;fill:none;stroke:#000000;stroke-opacity:1"
       text-anchor="middle"
       transform="matrix( 1.000 0.000 0.000 1.000 57.050 128.200 )"
       id="text51" />
    <path
       d="M 13.050 166.700 H 24.000 C 24.050 166.700 24.000 166.650 24.000 166.700 V 169.650 C 24.000 169.678 24.022 169.700 24.050 169.700 H 30.050 C 30.078 169.700 30.100 169.678 30.100 169.650 V 166.700 C 30.100 166.650 30.050 166.700 30.100 166.700 H 36.000 C 36.050 166.700 36.000 166.650 36.000 166.700 V 169.650 C 36.000 169.678 36.022 169.700 36.050 169.700 H 42.050 C 42.078 169.700 42.100 169.678 42.100 169.650 V 166.700 C 42.100 166.650 42.050 166.700 42.100 166.700 H 48.000 C 48.050 166.700 48.000 166.650 48.000 166.700 V 169.650 C 48.000 169.678 48.022 169.700 48.050 169.700 H 54.050 C 54.078 169.700 54.100 169.678 54.100 169.650 V 166.700 C 54.100 166.650 54.050 166.700 54.100 166.700 H 60.000 C 60.050 166.700 60.000 166.650 60.000 166.700 V 169.650 C 60.000 169.678 60.022 169.700 60.050 169.700 H 66.050 C 66.078 169.700 66.100 169.678 66.100 169.650 V 166.700 C 66.100 166.650 66.050 166.700 66.100 166.700 H 72.000 C 72.050 166.700 72.000 166.650 72.000 166.700 V 169.650 C 72.000 169.678 72.022 169.700 72.050 169.700 H 78.050 C 78.078 169.700 78.100 169.678 78.100 169.650 V 166.700 C 78.100 166.650 78.050 166.700 78.100 166.700 H 84.000 C 84.050 166.700 84.000 166.650 84.000 166.700 V 169.650 C 84.000 169.678 84.022 169.700 84.050 169.700 H 90.050 C 90.078 169.700 90.100 169.678 90.100 169.650 V 166.700 C 90.100 166.650 90.050 166.700 90.100 166.700 H 101.050 C 101.078 166.700 101.100 166.678 101.100 166.650 V 157.200 C 101.100 157.150 101.050 157.200 101.100 157.200 H 104.050 C 104.078 157.200 104.100 157.178 104.100 157.150 V 151.150 C 104.100 151.122 104.078 151.100 104.050 151.100 H 101.100 C 101.050 151.100 101.100 151.150 101.100 151.100 V 145.200 C 101.100 145.150 101.050 145.200 101.100 145.200 H 104.050 C 104.078 145.200 104.100 145.178 104.100 145.150 V 139.150 C 104.100 139.122 104.078 139.100 104.050 139.100 H 101.100 C 101.050 139.100 101.100 139.150 101.100 139.100 V 133.200 C 101.100 133.150 101.050 133.200 101.100 133.200 H 104.050 C 104.078 133.200 104.100 133.178 104.100 133.150 V 127.150 C 104.100 127.122 104.078 127.100 104.050 127.100 H 101.100 C 101.050 127.100 101.100 127.150 101.100 127.100 V 121.200 C 101.100 121.150 101.050 121.200 101.100 121.200 H 104.050 C 104.078 121.200 104.100 121.178 104.100 121.150 V 115.150 C 104.100 115.122 104.078 115.100 104.050 115.100 H 101.100 C 101.050 115.100 101.100 115.150 101.100 115.100 V 109.200 C 101.100 109.150 101.050 109.200 101.100 109.200 H 104.050 C 104.078 109.200 104.100 109.178 104.100 109.150 V 103.150 C 104.100 103.122 104.078 103.100 104.050 103.100 H 101.100 C 101.050 103.100 101.100 103.150 101.100 103.100 V 93.650 C 101.100 93.622 101.078 93.600 101.050 93.600 H 90.100 C 90.050 93.600 90.100 93.650 90.100 93.600 V 90.650 C 90.100 90.622 90.078 90.600 90.050 90.600 H 84.050 C 84.022 90.600 84.000 90.622 84.000 90.650 V 93.600 C 84.000 93.650 84.050 93.600 84.000 93.600 H 78.100 C 78.050 93.600 78.100 93.650 78.100 93.600 V 90.650 C 78.100 90.622 78.078 90.600 78.050 90.600 H 72.050 C 72.022 90.600 72.000 90.622 72.000 90.650 V 93.600 C 72.000 93.650 72.050 93.600 72.000 93.600 H 66.100 C 66.050 93.600 66.100 93.650 66.100 93.600 V 90.650 C 66.100 90.622 66.078 90.600 66.050 90.600 H 60.050 C 60.022 90.600 60.000 90.622 60.000 90.650 V 93.600 C 60.000 93.650 60.050 93.600 60.000 93.600 H 54.100 C 54.050 93.600 54.100 93.650 54.100 93.600 V 90.650 C 54.100 90.622 54.078 90.600 54.050 90.600 H 48.050 C 48.022 90.600 48.000 90.622 48.000 90.650 V 93.600 C 48.000 93.650 48.050 93.600 48.000 93.600 H 42.100 C 42.050 93.600 42.100 93.650 42.100 93.600 V 90.650 C 42.100 90.622 42.078 90.600 42.050 90.600 H 36.050 C 36.022 90.600 36.000 90.622 36.000 90.650 V 93.600 C 36.000 93.650 36.050 93.600 36.000 93.600 H 30.100 C 30.050 93.600 30.100 93.650 30.100 93.600 V 90.650 C 30.100 90.622 30.078 90.600 30.050 90.600 H 24.050 C 24.022 90.600 24.000 90.622 24.000 90.650 V 93.600 C 24.000 93.650 24.050 93.600 24.000 93.600 H 13.050 C 13.022 93.600 13.000 93.622 13.000 93.650 V 103.100 C 13.000 103.150 13.050 103.100 13.000 103.100 H 10.050 C 10.022 103.100 10.000 103.122 10.000 103.150 V 109.150 C 10.000 109.178 10.022 109.200 10.050 109.200 H 13.000 C 13.050 109.200 13.000 109.150 13.000 109.200 V 115.100 C 13.000 115.150 13.050 115.100 13.000 115.100 H 10.050 C 10.022 115.100 10.000 115.122 10.000 115.150 V 121.150 C 10.000 121.178 10.022 121.200 10.050 121.200 H 13.000 C 13.050 121.200 13.000 121.150 13.000 121.200 V 127.100 C 13.000 127.150 13.050 127.100 13.000 127.100 H 10.050 C 10.022 127.100 10.000 127.122 10.000 127.150 V 133.150 C 10.000 133.178 10.022 133.200 10.050 133.200 H 13.000 C 13.050 133.200 13.000 133.150 13.000 133.200 V 139.100 C 13.000 139.150 13.050 139.100 13.000 139.100 H 10.050 C 10.022 139.100 10.000 139.122 10.000 139.150 V 145.150 C 10.000 145.178 10.022 145.200 10.050 145.200 H 13.000 C 13.050 145.200 13.000 145.150 13.000 145.200 V 151.100 C 13.000 151.150 13.050 151.100 13.000 151.100 H 10.050 C 10.022 151.100 10.000 151.122 10.000 151.150 V 157.150 C 10.000 157.178 10.022 157.200 10.050 157.200 H 13.000 C 13.050 157.200 13.000 157.150 13.000 157.200 V 166.650 C 13.000 166.678 13.022 166.700 13.050 166.700"
       stroke="rgb(0,0,0)"
       stroke-width="0.10"
       id="path53"
       style="stroke:#000000;stroke-opacity:1;fill:none" />
  </g>
  <g
     id="p-4"
     style="fill:none;stroke-linecap:round;stroke-linejoin:round;stroke:#000000;stroke-opacity:1">
    <text
       alignment-baseline="hanging"
       font-size="4px"
       style="font-family:sans-serif;font-weight:normal;font-style:normal;fill:none;stroke:#000000;stroke-opacity:1"
       text-anchor="middle"
       transform="matrix( 1.000 0.000 0.000 1.000 55.550 46.100 )"
       id="text56" />
    <path
       d="M 10.050 86.100 H 11.299 C 11.349 86.100 11.299 86.050 11.299 86.100 V 89.050 C 11.299 89.078 11.321 89.100 11.349 89.100 H 13.947 C 13.975 89.100 13.997 89.078 13.997 89.050 V 86.100 C 13.997 86.050 13.947 86.100 13.997 86.100 H 19.696 C 19.746 86.100 19.696 86.050 19.696 86.100 V 89.050 C 19.696 89.078 19.719 89.100 19.746 89.100 H 98.050 H 101.050 C 101.078 89.100 101.100 89.078 101.100 89.050 V 86.050 V 13.050 V 10.050 C 101.100 10.022 101.078 10.000 101.050 10.000 H 98.050 H 19.746 C 19.719 10.000 19.696 10.022 19.696 10.050 V 13.000 C 19.696 13.050 19.746 13.000 19.696 13.000 H 13.997 C 13.947 13.000 13.997 13.050 13.997 13.000 V 10.050 C 13.997 10.022 13.975 10.000 13.947 10.000 H 11.349 C 11.321 10.000 11.299 10.022 11.299 10.050 V 13.000 C 11.299 13.050 11.349 13.000 11.299 13.000 H 10.050 C 10.022 13.000 10.000 13.022 10.000 13.050 V 86.050 C 10.000 86.078 10.022 86.100 10.050 86.100"
       stroke="rgb(0,0,0)"
       stroke-width="0.10"
       id="path58"
       style="stroke:#000000;stroke-opacity:1;fill:none" />
  </g>
  <g
     id="p-5"
     style="fill:none;stroke-linecap:round;stroke-linejoin:round;stroke:#000000;stroke-opacity:1">
    <path
       d="M 121.150 289.800 H 118.200 C 118.150 289.800 118.200 289.850 118.200 289.800 V 286.900 C 118.200 286.850 118.150 286.900 118.200 286.900 H 124.100 C 124.150 286.900 124.100 286.850 124.100 286.900 V 289.800 C 124.100 289.850 124.150 289.800 124.100 289.800 H 121.150 Z"
       stroke="rgb(0,0,255)"
       stroke-width="0.10"
       id="path61"
       style="stroke:#ff0000;stroke-opacity:1;fill:none" />
    <path
       d="M 133.150 289.800 H 130.200 C 130.150 289.800 130.200 289.850 130.200 289.800 V 286.900 C 130.200 286.850 130.150 286.900 130.200 286.900 H 136.100 C 136.150 286.900 136.100 286.850 136.100 286.900 V 289.800 C 136.100 289.850 136.150 289.800 136.100 289.800 H 133.150 Z"
       stroke="rgb(0,0,255)"
       stroke-width="0.10"
       id="path63"
       style="stroke:#ff0000;stroke-opacity:1;fill:none" />
    <path
       d="M 145.150 289.800 H 142.200 C 142.150 289.800 142.200 289.850 142.200 289.800 V 286.900 C 142.200 286.850 142.150 286.900 142.200 286.900 H 148.100 C 148.150 286.900 148.100 286.850 148.100 286.900 V 289.800 C 148.100 289.850 148.150 289.800 148.100 289.800 H 145.150 Z"
       stroke="rgb(0,0,255)"
       stroke-width="0.10"
       id="path65"
       style="stroke:#ff0000;stroke-opacity:1;fill:none" />
    <path
       d="M 157.150 289.800 H 154.200 C 154.150 289.800 154.200 289.850 154.200 289.800 V 286.900 C 154.200 286.850 154.150 286.900 154.200 286.900 H 160.100 C 160.150 286.900 160.100 286.850 160.100 286.900 V 289.800 C 160.100 289.850 160.150 289.800 160.100 289.800 H 157.150 Z"
       stroke="rgb(0,0,255)"
       stroke-width="0.10"
       id="path67"
       style="stroke:#ff0000;stroke-opacity:1;fill:none" />
    <path
       d="M 169.150 289.800 H 166.200 C 166.150 289.800 166.200 289.850 166.200 289.800 V 286.900 C 166.200 286.850 166.150 286.900 166.200 286.900 H 172.100 C 172.150 286.900 172.100 286.850 172.100 286.900 V 289.800 C 172.100 289.850 172.150 289.800 172.100 289.800 H 169.150 Z"
       stroke="rgb(0,0,255)"
       stroke-width="0.10"
       id="path69"
       style="stroke:#ff0000;stroke-opacity:1;fill:none" />
    <text
       alignment-baseline="hanging"
       font-size="4px"
       style="font-family:sans-serif;font-weight:normal;font-style:normal;fill:none;stroke:#000000;stroke-opacity:1"
       text-anchor="middle"
       transform="matrix( 1.000 0.000 0.000 1.000 145.150 265.400 )"
       id="text71" />
    <path
       d="M 108.650 292.900 H 181.650 C 181.678 292.900 181.700 292.878 181.700 292.850 V 282.400 C 181.700 282.350 181.650 282.400 181.700 282.400 H 184.650 C 184.678 282.400 184.700 282.378 184.700 282.350 V 276.350 C 184.700 276.322 184.678 276.300 184.650 276.300 H 181.700 C 181.650 276.300 181.700 276.350 181.700 276.300 V 270.400 C 181.700 270.350 181.650 270.400 181.700 270.400 H 184.650 C 184.678 270.400 184.700 270.378 184.700 270.350 V 264.350 C 184.700 264.322 184.678 264.300 184.650 264.300 H 181.700 C 181.650 264.300 181.700 264.350 181.700 264.300 V 258.400 C 181.700 258.350 181.650 258.400 181.700 258.400 H 184.650 C 184.678 258.400 184.700 258.378 184.700 258.350 V 252.350 C 184.700 252.322 184.678 252.300 184.650 252.300 H 181.700 C 181.650 252.300 181.700 252.350 181.700 252.300 V 241.850 C 181.700 241.822 181.678 241.800 181.650 241.800 H 108.650 C 108.622 241.800 108.600 241.822 108.600 241.850 V 252.300 C 108.600 252.350 108.650 252.300 108.600 252.300 H 105.650 C 105.622 252.300 105.600 252.322 105.600 252.350 V 258.350 C 105.600 258.378 105.622 258.400 105.650 258.400 H 108.600 C 108.650 258.400 108.600 258.350 108.600 258.400 V 264.300 C 108.600 264.350 108.650 264.300 108.600 264.300 H 105.650 C 105.622 264.300 105.600 264.322 105.600 264.350 V 270.350 C 105.600 270.378 105.622 270.400 105.650 270.400 H 108.600 C 108.650 270.400 108.600 270.350 108.600 270.400 V 276.300 C 108.600 276.350 108.650 276.300 108.600 276.300 H 105.650 C 105.622 276.300 105.600 276.322 105.600 276.350 V 282.350 C 105.600 282.378 105.622 282.400 105.650 282.400 H 108.600 C 108.650 282.400 108.600 282.350 108.600 282.400 V 292.850 C 108.600 292.878 108.622 292.900 108.650 292.900"
       stroke="rgb(0,0,0)"
       stroke-width="0.10"
       id="path73"
       style="stroke:#000000;stroke-opacity:1;fill:none" />
  </g>
  <g
     id="p-6"
     style="fill:none;stroke-linecap:round;stroke-linejoin:round;stroke:#000000;stroke-opacity:1">
    <path
       d="M 121.150 237.200 H 118.200 C 118.150 237.200 118.200 237.250 118.200 237.200 V 234.300 C 118.200 234.250 118.150 234.300 118.200 234.300 H 124.100 C 124.150 234.300 124.100 234.250 124.100 234.300 V 237.200 C 124.100 237.250 124.150 237.200 124.100 237.200 H 121.150 Z"
       stroke="rgb(0,0,255)"
       stroke-width="0.10"
       id="path76"
       style="stroke:#ff0000;stroke-opacity:1;fill:none" />
    <path
       d="M 133.150 237.200 H 130.200 C 130.150 237.200 130.200 237.250 130.200 237.200 V 234.300 C 130.200 234.250 130.150 234.300 130.200 234.300 H 136.100 C 136.150 234.300 136.100 234.250 136.100 234.300 V 237.200 C 136.100 237.250 136.150 237.200 136.100 237.200 H 133.150 Z"
       stroke="rgb(0,0,255)"
       stroke-width="0.10"
       id="path78"
       style="stroke:#ff0000;stroke-opacity:1;fill:none" />
    <path
       d="M 145.150 237.200 H 142.200 C 142.150 237.200 142.200 237.250 142.200 237.200 V 234.300 C 142.200 234.250 142.150 234.300 142.200 234.300 H 148.100 C 148.150 234.300 148.100 234.250 148.100 234.300 V 237.200 C 148.100 237.250 148.150 237.200 148.100 237.200 H 145.150 Z"
       stroke="rgb(0,0,255)"
       stroke-width="0.10"
       id="path80"
       style="stroke:#ff0000;stroke-opacity:1;fill:none" />
    <path
       d="M 157.150 237.200 H 154.200 C 154.150 237.200 154.200 237.250 154.200 237.200 V 234.300 C 154.200 234.250 154.150 234.300 154.200 234.300 H 160.100 C 160.150 234.300 160.100 234.250 160.100 234.300 V 237.200 C 160.100 237.250 160.150 237.200 160.100 237.200 H 157.150 Z"
       stroke="rgb(0,0,255)"
       stroke-width="0.10"
       id="path82"
       style="stroke:#ff0000;stroke-opacity:1;fill:none" />
    <path
       d="M 169.150 237.200 H 166.200 C 166.150 237.200 166.200 237.250 166.200 237.200 V 234.300 C 166.200 234.250 166.150 234.300 166.200 234.300 H 172.100 C 172.150 234.300 172.100 234.250 172.100 234.300 V 237.200 C 172.100 237.250 172.150 237.200 172.100 237.200 H 169.150 Z"
       stroke="rgb(0,0,255)"
       stroke-width="0.10"
       id="path84"
       style="stroke:#ff0000;stroke-opacity:1;fill:none" />
    <text
       alignment-baseline="hanging"
       font-size="4px"
       style="font-family:sans-serif;font-weight:normal;font-style:normal;fill:none;stroke:#000000;stroke-opacity:1"
       text-anchor="middle"
       transform="matrix( 1.000 0.000 0.000 1.000 145.150 212.800 )"
       id="text86" />
    <path
       d="M 108.650 240.300 H 181.650 C 181.678 240.300 181.700 240.278 181.700 240.250 V 229.800 C 181.700 229.750 181.650 229.800 181.700 229.800 H 184.650 C 184.678 229.800 184.700 229.778 184.700 229.750 V 223.750 C 184.700 223.722 184.678 223.700 184.650 223.700 H 181.700 C 181.650 223.700 181.700 223.750 181.700 223.700 V 217.800 C 181.700 217.750 181.650 217.800 181.700 217.800 H 184.650 C 184.678 217.800 184.700 217.778 184.700 217.750 V 211.750 C 184.700 211.722 184.678 211.700 184.650 211.700 H 181.700 C 181.650 211.700 181.700 211.750 181.700 211.700 V 205.800 C 181.700 205.750 181.650 205.800 181.700 205.800 H 184.650 C 184.678 205.800 184.700 205.778 184.700 205.750 V 199.750 C 184.700 199.722 184.678 199.700 184.650 199.700 H 181.700 C 181.650 199.700 181.700 199.750 181.700 199.700 V 189.250 C 181.700 189.222 181.678 189.200 181.650 189.200 H 108.650 C 108.622 189.200 108.600 189.222 108.600 189.250 V 199.700 C 108.600 199.750 108.650 199.700 108.600 199.700 H 105.650 C 105.622 199.700 105.600 199.722 105.600 199.750 V 205.750 C 105.600 205.778 105.622 205.800 105.650 205.800 H 108.600 C 108.650 205.800 108.600 205.750 108.600 205.800 V 211.700 C 108.600 211.750 108.650 211.700 108.600 211.700 H 105.650 C 105.622 211.700 105.600 211.722 105.600 211.750 V 217.750 C 105.600 217.778 105.622 217.800 105.650 217.800 H 108.600 C 108.650 217.800 108.600 217.750 108.600 217.800 V 223.700 C 108.600 223.750 108.650 223.700 108.600 223.700 H 105.650 C 105.622 223.700 105.600 223.722 105.600 223.750 V 229.750 C 105.600 229.778 105.622 229.800 105.650 229.800 H 108.600 C 108.650 229.800 108.600 229.750 108.600 229.800 V 240.250 C 108.600 240.278 108.622 240.300 108.650 240.300"
       stroke="rgb(0,0,0)"
       stroke-width="0.10"
       id="path88"
       style="stroke:#000000;stroke-opacity:1;fill:none" />
  </g>
  <g
     id="g971"
     transform="translate(-4.7000024,-3.6499998)"
     style="fill:none;stroke:#ff0000;stroke-linecap:round;stroke-linejoin:round;stroke-opacity:1">
    <rect
       style="opacity:1;fill:none;fill-opacity:1;stroke:#ff0000;stroke-width:0.351123;stroke-miterlimit:4;stroke-dasharray:none;stroke-opacity:1"
       id="rect928"
       width="12.148877"
       height="22.248877"
       x="54.175564"
       y="42.075562"
       ry="0.31527665" />
    <g
       id="g965"
       transform="translate(0,-0.37968922)"
       style="stroke:#ff0000;stroke-opacity:1;fill:none">
      <ellipse
         style="opacity:1;fill:none;fill-opacity:1;stroke:#ff0000;stroke-width:0.233206;stroke-miterlimit:4;stroke-dasharray:none;stroke-opacity:1"
         id="path941"
         cx="60.250004"
         cy="67.450005"
         rx="1.333397"
         ry="1.3333972" />
      <ellipse
         style="fill:none;fill-opacity:1;stroke:#ff0000;stroke-width:0.233206;stroke-linecap:round;stroke-linejoin:round;stroke-miterlimit:4;stroke-dasharray:none;stroke-opacity:1"
         id="path941-3"
         cx="60.250004"
         cy="39.709373"
         rx="1.333397"
         ry="1.3333972" />
    </g>
  </g>
  <rect
     style="opacity:0;fill:none;stroke:#000000;stroke-width:0.26458334;stroke-miterlimit:4;stroke-dasharray:none;stroke-opacity:1"
     id="rect941"
     width="48.965675"
     height="15.41591"
     x="113.76367"
     y="215.68515"
     ry="0.19248755" />
  <rect
     style="opacity:1;fill:none;stroke:#ff0000;stroke-width:0.151047;stroke-miterlimit:4;stroke-dasharray:none;stroke-opacity:1"
     id="rect943"
     width="27.299786"
     height="13.237776"
     x="119.26996"
     y="203.04834"
     ry="0" />
</svg>
